<svg width="133" height="129" viewBox="0 0 133 129" fill="none" xmlns="http://www.w3.org/2000/svg">
<path d="M55.4372 5.15916C55.1849 3.78759 56.1022 2.46796 57.4851 2.28282C66.386 1.0912 75.4543 1.68696 84.12 4.04319C92.7575 6.39177 100.791 10.4339 107.725 15.908C108.835 16.7847 108.929 18.4173 107.971 19.4614L97.1599 31.2487C96.2469 32.2441 94.7144 32.3313 93.6428 31.512C89.1063 28.0437 83.8974 25.4721 78.313 23.9536C72.7354 22.4371 66.9096 22.0055 61.1721 22.6749C59.8107 22.8337 58.5256 21.9448 58.2777 20.5974L55.4372 5.15916Z" fill="#C0F497"/>
<path d="M111.38 22.3621C112.363 21.4356 113.905 21.4499 114.827 22.4343C120.017 27.9786 124.151 34.3762 127.027 41.3311C129.888 48.2477 131.456 55.5936 131.665 63.0277C131.703 64.4098 130.563 65.5181 129.18 65.5021L112.787 65.313C111.405 65.2971 110.306 64.1624 110.24 62.7815C110.013 58.0648 108.972 53.4122 107.154 49.0176C105.342 44.637 102.789 40.5853 99.6039 37.0263C98.6602 35.9717 98.6755 34.3442 99.7064 33.3719L111.38 22.3621Z" fill="#36463D"/>
<path d="M20.2528 23.8538C19.1941 22.915 19.122 21.2811 20.1384 20.2937C27.615 13.0304 36.8097 7.63328 46.9266 4.571C48.2337 4.17536 49.5895 4.95427 49.9588 6.26795L54.2141 21.4056C54.5929 22.7531 53.7895 24.1442 52.457 24.5767C46.2121 26.6037 40.5175 29.9637 35.7974 34.4071C34.814 35.3328 33.2811 35.406 32.272 34.5112L20.2528 23.8538Z" fill="#28A263"/>
<path d="M3.63237 64.0539C2.24978 64.038 1.13812 62.9036 1.21272 61.5229C1.8856 49.0693 6.36323 37.0826 14.0796 27.0818C14.9051 26.012 16.4413 25.8496 17.5059 26.679L30.2133 36.5796C31.3289 37.4487 31.4951 39.0662 30.6555 40.2067C25.9873 46.5479 23.2127 54.0094 22.6374 61.7708C22.5351 63.1499 21.4078 64.259 20.0252 64.243L3.63237 64.0539Z" fill="#2DDB81"/>
</svg>
