<svg width="23" height="23" viewBox="0 0 23 23" fill="none" xmlns="http://www.w3.org/2000/svg">
<path fill-rule="evenodd" clip-rule="evenodd" d="M13.7782 1.15765C14.193 0.859143 14.7779 0.719551 15.3531 0.930024C16.5867 1.38134 17.7182 2.04211 18.7049 2.86859C19.1738 3.26135 19.3454 3.83685 19.2945 4.34488C19.2097 5.19123 19.359 6.0084 19.7656 6.71276C20.1273 7.33913 20.668 7.83391 21.3285 8.18175L21.5818 8.30527C22.0481 8.51545 22.4617 8.95292 22.5664 9.55709C22.6755 10.186 22.7323 10.832 22.7323 11.4905C22.7323 12.1489 22.6755 12.7951 22.5664 13.424C22.4721 13.9677 22.1277 14.3764 21.7198 14.606L21.5818 14.6758C20.806 15.0255 20.1725 15.5637 19.7656 16.2683C19.359 16.9726 19.2097 17.7897 19.2945 18.636C19.3453 19.144 19.1738 19.7195 18.7049 20.1123C17.7182 20.9387 16.5867 21.5995 15.3532 22.0508C14.778 22.2613 14.1931 22.1217 13.7784 21.8231C13.0873 21.3258 12.3043 21.0461 11.4903 21.0461C10.6762 21.0461 9.89324 21.3258 9.20224 21.8231C8.78754 22.1217 8.20258 22.2613 7.62728 22.0508C6.39378 21.5995 5.26224 20.9387 4.27551 20.1122C3.80664 19.7195 3.63515 19.144 3.68602 18.636C3.77077 17.7897 3.62139 16.9726 3.21476 16.2683C2.85313 15.642 2.31249 15.1472 1.65195 14.7993L1.39874 14.6758C0.932478 14.4656 0.518942 14.0281 0.414133 13.424C0.305029 12.7951 0.248291 12.1489 0.248291 11.4905C0.248291 10.8319 0.305029 10.1859 0.414122 9.55687C0.50845 9.01317 0.852847 8.60446 1.26069 8.37493L1.39873 8.30512C2.17454 7.95539 2.80792 7.41728 3.21476 6.71261C3.6214 6.00829 3.77078 5.19116 3.68602 4.34487C3.63514 3.83686 3.80663 3.26141 4.27551 2.86867C5.26226 2.04215 6.39384 1.38136 7.62739 0.930024C8.20265 0.71954 8.78758 0.859143 9.20229 1.15765C9.89324 1.65502 10.6762 1.93472 11.4903 1.93472C12.3043 1.93472 13.0873 1.65502 13.7782 1.15765ZM14.8535 3.14648C13.8804 3.78641 12.7329 4.18312 11.4903 4.18312C10.2477 4.18312 9.1001 3.78641 8.12704 3.14648C7.33892 3.4645 6.60566 3.89126 5.94595 4.40855C6.0131 5.57035 5.78271 6.7616 5.16193 7.83681C4.54099 8.91233 3.6242 9.70762 2.58413 10.2304C2.52654 10.6416 2.49669 11.0623 2.49669 11.4905C2.49669 11.9187 2.52654 12.3393 2.58413 12.7506C3.6242 13.2734 4.54099 14.0686 5.16193 15.1441C5.7827 16.2193 6.0131 17.4105 5.94595 18.5723C6.60563 19.0896 7.33886 19.5164 8.12695 19.8344C9.10002 19.1944 10.2477 18.7977 11.4903 18.7977C12.7329 18.7977 13.8805 19.1944 14.8537 19.8344C15.6416 19.5164 16.3748 19.0896 17.0345 18.5724C16.9674 17.4106 17.1977 16.2193 17.8185 15.1441C18.4395 14.0685 19.3563 13.2732 20.3964 12.7505C20.4541 12.3393 20.4839 11.9187 20.4839 11.4905C20.4839 11.0623 20.4541 10.6417 20.3964 10.2306C19.3563 9.70785 18.4395 8.91251 17.8185 7.83696C17.1977 6.76167 16.9673 5.57035 17.0345 4.40849C16.3748 3.89123 15.6416 3.46448 14.8535 3.14648ZM11.4903 6.99358C13.9737 6.99358 15.9871 9.00686 15.9871 11.4904C15.9871 13.9738 13.9737 15.9872 11.4903 15.9872C9.00677 15.9872 6.99348 13.9738 6.99348 11.4904C6.99348 9.00686 9.00677 6.99358 11.4903 6.99358ZM11.4903 9.24198C10.2485 9.24198 9.24188 10.2486 9.24188 11.4904C9.24188 12.7322 10.2485 13.7388 11.4903 13.7388C12.7321 13.7388 13.7387 12.7322 13.7387 11.4904C13.7387 10.2486 12.7321 9.24198 11.4903 9.24198Z" fill="#C0F497"/>
</svg>
