<svg width="26" height="24" viewBox="0 0 26 24" fill="none" xmlns="http://www.w3.org/2000/svg">
<path d="M7.2999 14.3245C7.91518 14.3245 8.50525 14.0936 8.94032 13.6828C9.37539 13.2719 9.61981 12.7146 9.61981 12.1335C9.61981 11.5525 9.37539 10.9952 8.94032 10.5843C8.50525 10.1735 7.91518 9.94263 7.2999 9.94263C6.68462 9.94263 6.09454 10.1735 5.65947 10.5843C5.2244 10.9952 4.97998 11.5525 4.97998 12.1335C4.97998 12.7146 5.2244 13.2719 5.65947 13.6828C6.09454 14.0936 6.68462 14.3245 7.2999 14.3245V14.3245ZM18.8995 14.3245C19.5148 14.3245 20.1048 14.0936 20.5399 13.6828C20.975 13.2719 21.2194 12.7146 21.2194 12.1335C21.2194 11.5525 20.975 10.9952 20.5399 10.5843C20.1048 10.1735 19.5148 9.94263 18.8995 9.94263C18.2842 9.94263 17.6941 10.1735 17.259 10.5843C16.824 10.9952 16.5796 11.5525 16.5796 12.1335C16.5796 12.7146 16.824 13.2719 17.259 13.6828C17.6941 14.0936 18.2842 14.3245 18.8995 14.3245V14.3245ZM13.0997 8.84717C13.715 8.84717 14.305 8.61634 14.7401 8.20547C15.1752 7.79459 15.4196 7.23732 15.4196 6.65626C15.4196 6.07519 15.1752 5.51792 14.7401 5.10704C14.305 4.69617 13.715 4.46534 13.0997 4.46534C12.4844 4.46534 11.8943 4.69617 11.4593 5.10704C11.0242 5.51792 10.7798 6.07519 10.7798 6.65626C10.7798 7.23732 11.0242 7.79459 11.4593 8.20547C11.8943 8.61634 12.4844 8.84717 13.0997 8.84717ZM13.0997 19.8017C13.715 19.8017 14.305 19.5709 14.7401 19.16C15.1752 18.7492 15.4196 18.1919 15.4196 17.6108C15.4196 17.0298 15.1752 16.4725 14.7401 16.0616C14.305 15.6507 13.715 15.4199 13.0997 15.4199C12.4844 15.4199 11.8943 15.6507 11.4593 16.0616C11.0242 16.4725 10.7798 17.0298 10.7798 17.6108C10.7798 18.1919 11.0242 18.7492 11.4593 19.16C11.8943 19.5709 12.4844 19.8017 13.0997 19.8017Z" stroke="#28A263" stroke-width="1.08263" stroke-linecap="round" stroke-linejoin="round"/>
<path d="M1.5 12.1336V23.0882M1.5 12.1336C1.5 18.1838 6.69313 23.0882 13.0996 23.0882C19.506 23.0882 24.6992 18.1838 24.6992 12.1336C24.6992 6.08341 19.506 1.17905 13.0996 1.17905C6.69313 1.17905 1.5 6.08341 1.5 12.1336Z" stroke="#28A263" stroke-width="1.08263" stroke-linecap="round" stroke-linejoin="round"/>
</svg>
